<svg width="130" height="131" viewBox="0 0 130 131" fill="none" xmlns="http://www.w3.org/2000/svg">
<path d="M58.9419 0.66394H11.7884C5.30477 0.66394 0 5.96871 0 12.4523V83.1826L17.6826 65.5H47.1535V59.6058C47.1535 46.6386 57.7041 36.0291 70.7303 36.0291V12.4523C70.7303 5.96871 65.4255 0.66394 58.9419 0.66394ZM58.9419 18.3465H50.1006C48.0966 25.3606 44.4422 31.9031 39.3732 37.5616L39.2553 37.6794L46.682 45.0472L44.5011 51.0003L35.3651 41.9233L20.6297 56.6587L16.5627 52.356L31.475 37.6794C27.8206 33.6125 24.8735 29.0739 22.7516 24.2407H28.5868C30.414 27.7772 32.6538 31.1369 35.3651 34.1429C39.6089 29.4276 42.6739 24.0639 44.619 18.3465H11.7884V12.4523H32.418V6.55813H38.3122V12.4523H58.9419V18.3465ZM117.884 47.8174H70.7303C64.2466 47.8174 58.9419 53.1222 58.9419 59.6058V100.865C58.9419 107.349 64.2466 112.654 70.7303 112.654H111.99L129.672 130.336V59.6058C129.672 53.1222 124.367 47.8174 117.884 47.8174ZM109.809 106.759L104.799 93.4974H83.8154L78.8642 106.759H70.023L89.8864 53.7116H98.7276L118.65 106.759H109.809ZM94.307 65.5L101.498 84.6561H87.175L94.307 65.5Z" fill="#2D3641"/>
<rect x="64.8359" y="53.7117" width="58.9419" height="53.0477" fill="#2D3641"/>
<path d="M104.438 100.865V59.606H111.99V100.865H104.438ZM76.6245 100.865V59.606H84.1758V100.865H76.6245ZM83.0431 82.7112V76.9349H105.886V82.7112H83.0431Z" fill="white"/>
</svg>
