<svg width="697" height="215" viewBox="0 0 697 215" fill="none" xmlns="http://www.w3.org/2000/svg">
<path d="M82.9419 42.6639H35.7884C29.3048 42.6639 24 47.9687 24 54.4523V125.183L41.6826 107.5H71.1535V101.606C71.1535 88.6386 81.7041 78.0291 94.7303 78.0291V54.4523C94.7303 47.9687 89.4255 42.6639 82.9419 42.6639ZM82.9419 60.3465H74.1006C72.0966 67.3606 68.4422 73.9031 63.3732 79.5616L63.2553 79.6794L70.682 87.0472L68.5011 93.0003L59.3651 83.9233L44.6297 98.6587L40.5627 94.356L55.475 79.6794C51.8206 75.6125 48.8735 71.0739 46.7516 66.2407H52.5868C54.414 69.7772 56.6538 73.1369 59.3651 76.1429C63.6089 71.4276 66.6739 66.0639 68.619 60.3465H35.7884V54.4523H56.418V48.5581H62.3122V54.4523H82.9419V60.3465ZM141.884 89.8174H94.7303C88.2466 89.8174 82.9419 95.1222 82.9419 101.606V142.865C82.9419 149.349 88.2466 154.654 94.7303 154.654H135.99L153.672 172.336V101.606C153.672 95.1222 148.367 89.8174 141.884 89.8174ZM133.809 148.759L128.799 135.497H107.815L102.864 148.759H94.023L113.886 95.7116H122.728L142.65 148.759H133.809ZM118.307 107.5L125.498 126.656H111.175L118.307 107.5Z" fill="#2D3641"/>
<rect x="88.8359" y="95.7117" width="58.9419" height="53.0477" fill="#2D3641"/>
<path d="M128.438 142.865V101.606H135.99V142.865H128.438ZM100.625 142.865V101.606H108.176V142.865H100.625ZM107.043 124.711V118.935H129.886V124.711H107.043Z" fill="white"/>
<path d="M242.44 151V61.4H261.64V151H242.44ZM186.248 151V61.4H205.448V151H186.248ZM203.016 112.984V97.496H245.512V112.984H203.016ZM310.236 152.536C303.58 152.536 297.735 151.171 292.7 148.44C287.666 145.624 283.698 141.741 280.796 136.792C277.98 131.757 276.572 125.997 276.572 119.512C276.572 112.856 277.98 106.925 280.796 101.72C283.612 96.5147 287.538 92.4187 292.572 89.432C297.607 86.4453 303.452 84.952 310.108 84.952C316.594 84.952 322.268 86.36 327.132 89.176C331.996 91.992 335.794 95.832 338.524 100.696C341.34 105.475 342.748 111.021 342.748 117.336C342.748 118.189 342.706 119.171 342.62 120.28C342.62 121.304 342.535 122.371 342.364 123.48H290.268V112.344H323.164C322.994 108.76 321.671 105.901 319.196 103.768C316.807 101.549 313.82 100.44 310.236 100.44C307.506 100.44 305.031 101.08 302.812 102.36C300.594 103.64 298.802 105.56 297.436 108.12C296.156 110.68 295.516 113.923 295.516 117.848V121.688C295.516 124.675 296.071 127.32 297.18 129.624C298.375 131.928 300.039 133.72 302.172 135C304.391 136.28 306.994 136.92 309.98 136.92C312.796 136.92 315.1 136.365 316.892 135.256C318.77 134.061 320.22 132.568 321.244 130.776H340.828C339.634 134.872 337.586 138.584 334.684 141.912C331.783 145.155 328.242 147.757 324.06 149.72C319.879 151.597 315.271 152.536 310.236 152.536ZM356.867 151V86.488H373.891L375.683 98.264C377.39 95.5333 379.395 93.1867 381.699 91.224C384.003 89.2613 386.649 87.7253 389.635 86.616C392.707 85.5067 395.993 84.952 399.491 84.952V105.304H393.091C390.531 105.304 388.185 105.603 386.051 106.2C384.003 106.712 382.211 107.608 380.675 108.888C379.225 110.168 378.073 111.917 377.219 114.136C376.451 116.269 376.067 118.957 376.067 122.2V151H356.867ZM410.617 151V86.488H427.385L429.049 94.808C431.097 91.8213 433.785 89.432 437.113 87.64C440.527 85.848 444.452 84.952 448.889 84.952C452.047 84.952 454.905 85.3787 457.465 86.232C460.025 87 462.287 88.1947 464.249 89.816C466.212 91.352 467.833 93.3147 469.113 95.704C471.588 92.376 474.745 89.7733 478.585 87.896C482.425 85.9333 486.607 84.952 491.129 84.952C496.932 84.952 501.711 86.104 505.465 88.408C509.305 90.712 512.164 94.04 514.041 98.392C515.919 102.744 516.857 108.035 516.857 114.264V151H497.785V115.928C497.785 111.235 496.847 107.608 494.969 105.048C493.177 102.403 490.276 101.08 486.265 101.08C483.705 101.08 481.444 101.72 479.481 103C477.519 104.28 475.983 106.072 474.873 108.376C473.849 110.68 473.337 113.453 473.337 116.696V151H454.265V115.928C454.265 111.235 453.327 107.608 451.449 105.048C449.572 102.403 446.543 101.08 442.361 101.08C439.972 101.08 437.796 101.72 435.833 103C433.956 104.28 432.463 106.072 431.353 108.376C430.329 110.68 429.817 113.453 429.817 116.696V151H410.617ZM564.611 152.536C557.955 152.536 552.11 151.171 547.075 148.44C542.041 145.624 538.073 141.741 535.171 136.792C532.355 131.757 530.947 125.997 530.947 119.512C530.947 112.856 532.355 106.925 535.171 101.72C537.987 96.5147 541.913 92.4187 546.947 89.432C551.982 86.4453 557.827 84.952 564.483 84.952C570.969 84.952 576.643 86.36 581.507 89.176C586.371 91.992 590.169 95.832 592.899 100.696C595.715 105.475 597.123 111.021 597.123 117.336C597.123 118.189 597.081 119.171 596.995 120.28C596.995 121.304 596.91 122.371 596.739 123.48H544.643V112.344H577.539C577.369 108.76 576.046 105.901 573.571 103.768C571.182 101.549 568.195 100.44 564.611 100.44C561.881 100.44 559.406 101.08 557.187 102.36C554.969 103.64 553.177 105.56 551.811 108.12C550.531 110.68 549.891 113.923 549.891 117.848V121.688C549.891 124.675 550.446 127.32 551.555 129.624C552.75 131.928 554.414 133.72 556.547 135C558.766 136.28 561.369 136.92 564.355 136.92C567.171 136.92 569.475 136.365 571.267 135.256C573.145 134.061 574.595 132.568 575.619 130.776H595.203C594.009 134.872 591.961 138.584 589.059 141.912C586.158 145.155 582.617 147.757 578.435 149.72C574.254 151.597 569.646 152.536 564.611 152.536ZM638.122 152.536C632.064 152.536 626.816 151.597 622.378 149.72C618.026 147.757 614.57 145.112 612.01 141.784C609.536 138.456 608.128 134.701 607.786 130.52H626.858C627.2 131.971 627.797 133.293 628.65 134.488C629.589 135.597 630.826 136.493 632.362 137.176C633.984 137.773 635.776 138.072 637.738 138.072C639.872 138.072 641.578 137.816 642.858 137.304C644.224 136.707 645.248 135.939 645.93 135C646.613 134.061 646.954 133.08 646.954 132.056C646.954 130.435 646.442 129.197 645.418 128.344C644.48 127.491 643.072 126.808 641.194 126.296C639.317 125.699 637.056 125.144 634.41 124.632C631.338 123.949 628.266 123.181 625.194 122.328C622.208 121.389 619.52 120.237 617.13 118.872C614.826 117.507 612.949 115.757 611.498 113.624C610.133 111.405 609.45 108.717 609.45 105.56C609.45 101.72 610.517 98.264 612.65 95.192C614.784 92.0347 617.856 89.56 621.866 87.768C625.877 85.8907 630.741 84.952 636.458 84.952C644.565 84.952 650.922 86.744 655.53 90.328C660.138 93.912 662.869 98.7333 663.722 104.792H645.802C645.29 103.085 644.224 101.805 642.602 100.952C640.981 100.013 638.933 99.544 636.458 99.544C633.642 99.544 631.509 100.013 630.058 100.952C628.608 101.891 627.882 103.128 627.882 104.664C627.882 105.688 628.352 106.627 629.29 107.48C630.314 108.248 631.765 108.931 633.642 109.528C635.52 110.125 637.824 110.723 640.554 111.32C645.76 112.429 650.24 113.624 653.994 114.904C657.834 116.184 660.821 118.061 662.954 120.536C665.088 122.925 666.112 126.424 666.026 131.032C666.112 135.213 665.002 138.925 662.698 142.168C660.48 145.411 657.28 147.971 653.098 149.848C648.917 151.64 643.925 152.536 638.122 152.536Z" fill="#2D3641"/>
</svg>
